<svg xmlns="http://www.w3.org/2000/svg" viewBox="0 0 1000 1000" xml:space="preserve"><switch><g><path fill="#122436" d="M655.6 811.4 641.7 797c.5-.5 1-1 1.5-1.4l14 14.3c-.6.5-1.1 1-1.6 1.5zm15.8-16.3-14.8-13.4c4.3-4.8 8.5-9.7 12.5-14.8l15.6 12.5c-4.2 5.3-8.7 10.6-13.3 15.7zm25.7-32.3-16.4-11.5c3.7-5.3 7.2-10.7 10.6-16.2l17.1 10.4c-3.6 5.9-7.4 11.7-11.3 17.3zm21.5-35.2-17.7-9.3c3-5.7 5.8-11.5 8.5-17.4l18.3 8.2c-2.9 6.2-6 12.5-9.1 18.5zm16.8-37.6-18.7-7c2.3-6 4.3-12.2 6.2-18.3l19.1 5.8c-2 6.5-4.2 13.1-6.6 19.5zm12-39.4-19.5-4.6c1.5-6.2 2.8-12.6 3.9-19l19.7 3.4c-1.2 6.7-2.6 13.5-4.1 20.2zm6.9-40.6-19.9-2.1c.7-6.4 1.2-12.9 1.5-19.3l20 .9c-.3 6.7-.8 13.6-1.6 20.5zm-18.1-40.9c-.1-6.4-.4-12.9-.9-19.4l19.9-1.6c.5 6.8.9 13.7 1 20.6l-20 .4zm-3.1-38.6c-.9-6.4-2-12.8-3.3-19.1l19.6-4.1c1.4 6.7 2.6 13.5 3.6 20.3l-19.9 2.9zm-7.9-37.9c-1.7-6.2-3.6-12.4-5.7-18.5l18.9-6.5c2.2 6.5 4.3 13.1 6.1 19.7l-19.3 5.3zM712.6 456c-2.5-5.9-5.2-11.9-8-17.6l17.9-8.8c3 6.1 5.9 12.5 8.5 18.8l-18.4 7.6zm-17.1-34.8c-3.2-5.6-6.6-11.1-10.2-16.5l16.7-11c3.8 5.7 7.4 11.6 10.8 17.6l-17.3 9.9zm-21.3-32.3c-3.9-5.1-8-10.2-12.1-15.1l15.2-13c4.5 5.2 8.8 10.6 12.9 16.1l-16 12zM649 359.5c-4.5-4.6-9.2-9.2-13.9-13.5l13.5-14.8c5.1 4.6 10 9.4 14.8 14.3l-14.4 14zm-436.1-7.3L199 337.8c4.9-4.8 10.1-9.4 15.3-13.9l13 15.2c-4.9 4.2-9.8 8.6-14.4 13.1zm407.5-18.8c-5-4-10.2-7.9-15.5-11.6l11.5-16.4c5.6 3.9 11.1 8.1 16.5 12.4l-12.5 15.6zm-378-6.3-12-16c5.5-4.1 11.2-8.1 16.9-11.8l11 16.7c-5.4 3.5-10.7 7.2-15.9 11.1zm346.3-16c-5.5-3.4-11.1-6.6-16.8-9.6l9.4-17.7c6 3.2 12.1 6.6 17.9 10.2l-10.5 17.1zm-313.9-5.3-9.9-17.4c6-3.4 12.1-6.6 18.3-9.6l8.8 18c-5.8 2.8-11.6 5.9-17.2 9zM554.5 293c-5.9-2.6-11.9-5.1-17.9-7.4l7.1-18.7c6.4 2.4 12.8 5.1 19 7.9l-8.2 18.2zm-244.9-4.1-7.6-18.5c6.3-2.6 12.8-5 19.3-7.2l6.4 18.9c-6 2-12.1 4.3-18.1 6.8zm208.7-9.6c-6.1-1.9-12.4-3.6-18.7-5.1l4.7-19.4c6.7 1.6 13.4 3.4 19.9 5.4l-5.9 19.1zm-172-2.9-5.2-19.3c6.6-1.8 13.4-3.4 20.1-4.8l4 19.6c-6.4 1.3-12.7 2.8-18.9 4.5zm134.4-6.1c-6.3-1.1-12.8-2-19.2-2.7l2.2-19.9c6.8.8 13.7 1.7 20.4 2.9l-3.4 19.7zm-96.5-1.6-2.8-19.8c6.8-.9 13.7-1.7 20.5-2.2l1.5 19.9c-6.3.5-12.8 1.2-19.2 2.1zm58-2.7c-6.4-.3-12.9-.4-19.4-.3l-.3-20c6.8-.1 13.8 0 20.6.4l-.9 19.9z"/><path fill="#FFF" d="m365.1 726.1 77.8-72.7c5.9-5.5 15-5.3 20.7.4l177.7 177.7c5.8 5.8 15.2 5.8 21 0l24-24c4.4-4.4 5.6-10.9 3.1-16.6L578 540.9c-2.6-5.8-1.2-12.6 3.4-16.9l84.8-79.2c37.6-35.1 43.1-90.3 12-121.4-31.1-31.1-86.2-25.6-121.4 12l-79.1 84.8c-4.3 4.6-11.1 6-16.9 3.4L210.7 312.3c-5.6-2.5-12.2-1.3-16.6 3.1l-24 24c-5.8 5.8-5.8 15.2 0 21l177.8 177.8c5.7 5.7 5.8 14.8.4 20.7l-72.7 77.8c-2.4 2.5-5.5 4.1-8.9 4.6l-101.9 13.5c-12.2 1.6-17.3 16.6-8.6 25.3l165.5 165.4c8.7 8.7 23.7 3.7 25.3-8.6L360.5 735c.4-3.4 2-6.5 4.6-8.9z"/><path fill="#4EA4DB" d="m365.1 726.1 77.8-72.7c5.9-5.5 15-5.3 20.7.4l177.7 177.7c5.8 5.8 15.2 5.8 21 0l24-24c4.4-4.4 5.6-10.9 3.1-16.6L578 540.9c-2.6-5.8-1.2-12.6 3.4-16.9l84.8-79.2c37.6-35.1 43.1-90.3 12-121.4-31.1-31.1-86.2-25.6-121.4 12l-79.1 84.8c-4.3 4.6-11.1 6-16.9 3.4L210.7 312.3c-5.6-2.5-12.2-1.3-16.6 3.1l-24 24c-5.8 5.8-5.8 15.2 0 21l177.8 177.8c5.7 5.7 5.8 14.8.4 20.7l-72.7 77.8c-2.4 2.5-5.5 4.1-8.9 4.6l-101.9 13.5c-12.2 1.6-17.3 16.6-8.6 25.3l165.5 165.4c8.7 8.7 23.7 3.7 25.3-8.6L360.5 735c.4-3.4 2-6.5 4.6-8.9z"/><path fill="#FFF" d="m339 676.8-14.1-14.1 17-17 14.1 14.1-17 17zm34.1-34.1L359 628.6l17-17 14.1 14.1-17 17zm34-34L393 594.5l17-17 14.1 14.1-17 17.1zm34.1-34.1-14.1-14.1 17-17 14.1 14.1-17 17zm34.1-34-14.1-14.1 17-17 14.1 14.1-17 17zm34-34.1-14.1-14.1 17-17 14.1 14.1-17 17zm34.1-34.1-14.1-14.1 17-17 14.1 14.1-17 17zm34.1-34-14.1-14.1 17-17 14.1 14.1-17 17zm34-34.1-14.1-14.1 17-17 14.1 14.1-17 17z"/><path fill="#FFCD35" d="M578 540.9c-2.6-5.8-1.2-12.6 3.4-16.9l-148 138.3 9.5-8.9c5.9-5.5 15-5.3 20.7.4l177.7 177.7c5.8 5.8 15.2 5.8 21 0l24-24c4.4-4.4 5.6-10.9 3.1-16.6L578 540.9zM339 568.9l138.7-148.6c-4.3 4.6-11.1 6-16.9 3.4L210.7 312.3c-5.6-2.5-12.2-1.3-16.6 3.1l-24 24c-5.8 5.8-5.8 15.2 0 21l177.8 177.8c5.7 5.7 5.8 14.8.4 20.7l-9.3 10zM494.3 402.5 490 407z"/><path fill="#122436" d="m229.044 752.308 78.243-72.545 13.598 14.666-78.243 72.545z"/><path fill="#FFF" d="M678.2 323.5c-31.1-31.1-86.2-25.6-121.4 12L519 376l.1.2c34.2-36.7 88-42 118.3-11.7 29.3 29.3 25.3 80.6-8.3 115l37.1-34.6c37.6-35.2 43.1-90.3 12-121.4z"/><path fill="#122436" d="M332.2 859.9c-6.5 0-12.8-2.5-17.5-7.3L149.2 687.2c-6.7-6.7-9-16.5-6-25.6 3.1-9 10.8-15.4 20.3-16.7l101.9-13.5c1.1-.1 2.2-.7 2.9-1.5l72.7-77.8c1.8-1.9 1.8-4.9-.1-6.8L163.1 367.5c-9.7-9.7-9.7-25.5 0-35.2l24-24c7.2-7.2 18.4-9.3 27.7-5.1l250.1 111.3c1.9.8 4.1.4 5.6-1.1l79.1-84.8c20.5-22 48.3-34.9 76.2-35.3 23.1-.4 44.2 7.8 59.5 23.1 15.3 15.3 23.5 36.4 23.1 59.5-.5 27.9-13.3 55.7-35.3 76.2l-84.8 79.2c-1.5 1.4-2 3.7-1.1 5.6l111.4 250c4.2 9.3 2.1 20.5-5.1 27.7l-24 24c-4.7 4.7-10.9 7.3-17.6 7.3-6.6 0-12.9-2.6-17.6-7.3L456.5 660.9c-1.9-1.9-4.8-1.9-6.8-.1l-77.8 72.7c-.8.8-1.4 1.8-1.5 2.9l-13.5 101.9c-1.3 9.5-7.6 17.2-16.7 20.3-2.6.9-5.3 1.3-8 1.3zM204.6 321.1c-1.3 0-2.5.5-3.5 1.4l-24 24c-1.9 1.9-1.9 5 0 6.9L355 531.1c9.5 9.5 9.8 24.7.6 34.6l-72.7 77.8c-3.9 4.2-9.2 6.9-14.9 7.7l-101.9 13.5c-2.7.4-3.7 2.4-4 3.3-.3.9-.8 3.1 1.2 5l165.5 165.4c1.9 1.9 4.2 1.5 5 1.2.9-.3 2.9-1.3 3.3-4l13.5-101.9c.8-5.7 3.5-11 7.7-14.9l77.8-72.7c9.9-9.2 25-8.9 34.6.6l177.7 177.7c1.2 1.2 2.7 1.4 3.5 1.4.8 0 2.2-.2 3.4-1.4l24-24c1.4-1.4 1.8-3.6 1-5.4L568.9 545c-4.3-9.7-2-21.1 5.7-28.3l84.8-79.2c18-16.8 28.6-39.4 29-62 .3-17.6-5.8-33.6-17.3-45-11.4-11.4-27.4-17.5-45-17.2-22.5.4-45.1 11-62 29L485 427.1c-7.2 7.8-18.6 10.1-28.3 5.8L206.6 321.5c-.6-.3-1.3-.4-2-.4z"/><path fill="#122436" d="m418.622 662.484 166.768-155.77 13.652 14.616L432.274 677.1zM329.444 564.357 486.94 395.642l14.62 13.648-157.497 168.715zM632.6 490.1l-13.7-14.6c17.5-16.4 27.8-38.3 28.2-60.2.3-17.1-5.7-32.6-16.7-43.7-11.1-11.1-26.6-17-43.7-16.7-21.9.4-43.8 10.6-60.2 28.2l-14.6-13.6c20-21.5 47.2-34.1 74.5-34.5 22.6-.4 43.2 7.6 58.2 22.6 15 15 23 35.6 22.6 58.2-.6 27.1-13.2 54.3-34.6 74.3zM159.9 453.4l-14.1-14.1 15.2-15.2 14.1 14.1-15.2 15.2zm30.3-30.3L176.1 409l15.2-15.2 14.1 14.1-15.2 15.2z"/><path fill="#122436" d="m174.414 410.616 16.83-16.829 14.141 14.142-16.829 16.83zM184.8 538.9l-14.1-14.1 15.2-15.2 14.1 14.1-15.2 15.2zm30.3-30.3L201 494.5l15.2-15.2 14.1 14.1-15.2 15.2zm30.4-30.3-14.1-14.1 15.2-15.2 14.1 14.1-15.2 15.2z"/><path fill="#122436" d="m208.078 487.434 38.396-38.395 14.142 14.142-38.396 38.395zM212.8 621.5l-14.1-14.1 12.1-12.1 14.1 14.1-12.1 12.1zm27.3-27.3L225.9 580l15.2-15.2 14.1 14.1-15.1 15.3zm30.3-30.3-14.1-14.1 15.2-15.2 14.1 14.1-15.2 15.2zm30.3-30.3-14.1-14.1 15.2-15.2 14.1 14.1-15.2 15.2z"/><path fill="#122436" d="m263.336 542.591 38.395-38.396 14.142 14.142-38.395 38.396z"/><g><path fill="#122436" d="M560.6 854.1 546.5 840l15.2-15.2 14.1 14.1-15.2 15.2zm30.4-30.3-14.1-14.1 15.2-15.2 14.1 14.1-15.2 15.2z"/><path fill="#122436" d="m575.091 811.36 16.829-16.829 14.142 14.142-16.829 16.83zM475.1 829.2 461 815.1l15.2-15.2 14.1 14.1-15.2 15.2zm30.3-30.3-14.1-14.1 15.2-15.2 14.1 14.1-15.2 15.2zm30.3-30.3-14.1-14.1 15.2-15.2 14.1 14.1-15.2 15.2z"/><path fill="#122436" d="m498.39 777.713 38.395-38.396 14.142 14.142-38.396 38.396zM392.6 801.2l-14.1-14.1 12.1-12.1 14.1 14.1-12.1 12.1zm27.2-27.2-14.1-14.1 15.2-15.2 14.1 14.1-15.2 15.2zm30.4-30.3L436 729.5l15.2-15.2 14.1 14.1-15.1 15.3zm30.3-30.4-14.1-14.1 15.2-15.2 14.1 14.1-15.2 15.2z"/><path fill="#122436" d="m443.066 722.469 38.395-38.396 14.142 14.142-38.395 38.396z"/></g><g><circle fill="#4EA4DB" cx="426.9" cy="238.4" r="88.3"/><path fill="#FFF" d="M426.9 171.9c45.1 0 82.2 33.8 87.6 77.4.4-3.6.7-7.2.7-10.9 0-48.8-39.5-88.3-88.3-88.3s-88.3 39.5-88.3 88.3c0 3.7.3 7.3.7 10.9 5.4-43.6 42.5-77.4 87.6-77.4z"/><path fill="#122436" d="M426.9 336.7c-54.2 0-98.3-44.1-98.3-98.3 0-54.2 44.1-98.3 98.3-98.3 54.2 0 98.3 44.1 98.3 98.3 0 54.2-44.1 98.3-98.3 98.3zm0-176.6c-43.2 0-78.3 35.1-78.3 78.3 0 43.2 35.1 78.3 78.3 78.3 43.2 0 78.3-35.1 78.3-78.3 0-43.2-35.1-78.3-78.3-78.3z"/><g><path fill="#FFF" d="M425.4 210.1c-1.8.1-3.5.3-5.1.7l-8-8.5c-1.2-1.3-3.2-1.5-4.7-.6l-7.5 4.9c-1.5 1-2.1 2.9-1.4 4.5l4.5 10.8c-2.1 2.7-3.7 5.9-4.7 9.2l-11.4 2.7c-1.7.4-2.9 2-2.8 3.8l.5 8.9c.1 1.8 1.4 3.2 3.2 3.5l11.6 1.5c1.4 3.2 3.3 6.2 5.6 8.7l-3.3 11.2c-.5 1.7.3 3.5 1.9 4.3l8 4.1c1.6.8 3.5.4 4.6-1l7.1-9.3c1.7.2 3.4.3 5.2.2 1.8-.1 3.5-.3 5.1-.7l8 8.5c1.2 1.3 3.2 1.5 4.7.6l7.5-4.9c1.5-1 2.1-2.9 1.4-4.5l-4.5-10.8c2.1-2.7 3.7-5.9 4.7-9.2L467 246c1.7-.4 2.9-2 2.8-3.8l-.5-8.9c-.1-1.8-1.4-3.2-3.2-3.5l-11.6-1.5c-1.4-3.2-3.3-6.2-5.6-8.7l3.3-11.2c.5-1.7-.3-3.5-1.9-4.3l-8-4.1c-1.6-.8-3.5-.4-4.6 1l-7.1 9.3c-1.8-.3-3.5-.3-5.2-.2zm16.4 29c.4 8.2-5.9 15.3-14.1 15.7-8.2.4-15.3-5.9-15.7-14.1-.4-8.2 5.9-15.3 14.1-15.7 8.3-.5 15.3 5.9 15.7 14.1z"/></g></g><g><circle fill="#4EA4DB" cx="759.9" cy="571.3" r="88.3"/><path fill="#FFF" d="M759.9 504.9c45.1 0 82.2 33.8 87.6 77.4.4-3.6.7-7.2.7-10.9 0-48.8-39.5-88.3-88.3-88.3s-88.3 39.5-88.3 88.3c0 3.7.3 7.3.7 10.9 5.3-43.7 42.5-77.4 87.6-77.4z"/><path fill="#122436" d="M759.9 669.6c-54.2 0-98.3-44.1-98.3-98.3 0-54.2 44.1-98.3 98.3-98.3s98.3 44.1 98.3 98.3c-.1 54.2-44.1 98.3-98.3 98.3zm0-176.6c-43.2 0-78.3 35.1-78.3 78.3 0 43.2 35.1 78.3 78.3 78.3 43.2 0 78.3-35.1 78.3-78.3-.1-43.1-35.2-78.3-78.3-78.3z"/></g><g><path fill="#FFF" d="m746.7 617-37.5-37.5 16.9-16.9 20.6 20.5 46.9-46.9 16.9 17z"/></g></g></switch></svg>